<?xml version="1.0" standalone="no"?><!DOCTYPE svg PUBLIC "-//W3C//DTD SVG 1.1//EN" "http://www.w3.org/Graphics/SVG/1.1/DTD/svg11.dtd"><svg t="1696695109267" class="icon" viewBox="0 0 1024 1024" version="1.1" xmlns="http://www.w3.org/2000/svg" p-id="4155" xmlns:xlink="http://www.w3.org/1999/xlink" width="200" height="200"><path d="M499.2 268.8c-115.2 0-213.333333-85.333333-213.333333-183.466667 0-12.8 8.533333-21.333333 21.333333-21.333333s21.333333 8.533333 21.333333 21.333333c0 68.266667 72.533333 140.8 170.666667 140.8s170.666667-72.533333 170.666667-140.8c0-12.8 8.533333-21.333333 21.333333-21.333333s21.333333 8.533333 21.333333 21.333333c0 98.133333-98.133333 183.466667-213.333333 183.466667z" fill="#2c2c2c" p-id="4156"></path><path d="M930.133333 413.866667h-153.6c-12.8 0-21.333333-8.533333-21.333333-21.333334s8.533333-21.333333 21.333333-21.333333h153.6c17.066667 0 21.333333-8.533333 21.333334-21.333333V213.333333c0-12.8-4.266667-21.333333-17.066667-25.6L682.666667 93.866667c-8.533333-4.266667-17.066667-17.066667-12.8-25.6 4.266667-8.533333 12.8-17.066667 25.6-12.8l251.733333 93.866666c25.6 4.266667 42.666667 29.866667 42.666667 59.733334v136.533333c4.266667 42.666667-21.333333 68.266667-59.733334 68.266667zM221.866667 413.866667H68.266667C29.866667 413.866667 4.266667 388.266667 4.266667 349.866667V213.333333c0-29.866667 17.066667-55.466667 42.666666-59.733333L298.666667 59.733333c8.533333-4.266667 21.333333 0 25.6 12.8s0 21.333333-12.8 25.6L64 187.733333c-12.8 4.266667-17.066667 12.8-17.066667 25.6v136.533334c0 12.8 8.533333 21.333333 21.333334 21.333333h153.6c12.8 0 21.333333 8.533333 21.333333 21.333333s-8.533333 21.333333-21.333333 21.333334z" fill="#2c2c2c" p-id="4157"></path><path d="M776.533333 755.2c-12.8 0-21.333333-8.533333-21.333333-21.333333V396.8c0-12.8 8.533333-21.333333 21.333333-21.333333s21.333333 8.533333 21.333334 21.333333v337.066667c0 12.8-8.533333 21.333333-21.333334 21.333333zM533.333333 998.4H298.666667c-55.466667 0-98.133333-42.666667-98.133334-98.133333V396.8c0-12.8 8.533333-21.333333 21.333334-21.333333s21.333333 8.533333 21.333333 21.333333v503.466667c0 29.866667 25.6 55.466667 55.466667 55.466666h234.666666c12.8 0 21.333333 8.533333 21.333334 21.333334s-8.533333 21.333333-21.333334 21.333333z" fill="#2c2c2c" p-id="4158"></path><path d="M691.2 994.133333H597.333333c-12.8 0-21.333333-8.533333-21.333333-21.333333s8.533333-21.333333 21.333333-21.333333h93.866667c34.133333 0 64-29.866667 64-64v-85.333334c0-12.8 8.533333-21.333333 21.333333-21.333333s21.333333 8.533333 21.333334 21.333333v85.333334c0 59.733333-46.933333 106.666667-106.666667 106.666666z" fill="#2c2c2c" p-id="4159"></path></svg>